<svg width="79" height="32" viewBox="0 0 79 32" fill="none" xmlns="http://www.w3.org/2000/svg">
<path fill-rule="evenodd" clip-rule="evenodd" d="M78.1606 7.37187C78.2456 7.70587 77.8736 8.02587 77.6806 8.27187C76.0606 10.3119 74.2646 12.7269 72.1056 14.2779C72.2616 15.0899 72.1786 16.1679 71.8966 16.7629C72.4626 17.4869 73.0626 18.1729 73.4116 19.1109C72.9516 21.5609 71.8836 23.4609 70.1766 24.7039C68.5106 25.9149 66.2586 26.3939 63.7046 26.9829C58.7656 28.1249 50.6396 29.2509 46.9756 26.2919C43.0086 28.6259 34.9916 28.9339 31.2806 26.1529C28.6426 29.5029 18.2376 29.2079 19.7856 22.5629C17.8556 24.0289 15.0026 26.0489 12.2806 27.1899C9.12359 28.5119 3.14559 28.3629 3.74259 23.8759C3.81459 23.3409 4.04059 23.0389 4.29359 22.5629C3.37059 20.9469 2.78659 19.8259 2.22859 18.4199C1.69359 17.0729 0.878592 15.5399 0.782592 13.6569C0.582592 9.65287 3.69359 7.11387 6.77459 5.92187C8.34559 5.31387 9.62259 4.43187 11.1796 3.99087C13.5056 3.32587 15.4996 4.60887 15.6536 6.75187C18.3586 5.94687 21.6516 5.05887 25.2236 5.57887C28.0666 3.36087 33.6206 4.73087 37.2706 5.78387C38.0956 6.02387 39.2066 6.63987 39.8176 6.61387C40.3356 6.59287 41.2706 5.88787 41.8126 5.64687C44.3736 4.50687 47.7226 3.29487 51.3826 3.92087C52.0756 4.03787 52.7096 4.40587 53.4476 4.47087C53.9476 4.51787 54.5606 4.36087 55.0996 4.33487C63.6546 3.91587 70.7756 6.21887 78.1606 7.37187ZM54.2056 7.09787C53.3316 7.20287 52.7116 8.16187 52.1396 8.47787C52.1816 8.47387 52.2206 8.46787 52.2076 8.40787C52.3126 7.93787 52.5126 7.56187 52.5526 7.02787C47.9706 5.40987 43.5126 7.77587 40.2306 9.58287C37.6066 11.0269 35.2656 12.7239 33.6206 14.4149C34.2156 13.3999 34.8456 12.3949 35.5496 11.4469C36.2626 10.4839 37.0566 9.61187 37.6846 8.75487C36.3126 8.39487 34.9366 8.01387 33.5516 7.71787C31.5846 7.29787 28.8486 6.60287 27.2196 7.51187C26.7476 7.77387 26.3616 8.42087 25.9116 8.47787C25.5376 8.52687 24.9236 8.25387 24.4646 8.20287C22.7826 8.01487 21.2346 8.17087 19.7146 8.47787C18.2916 8.76487 15.2816 9.27187 14.8946 10.6179C14.6486 11.4819 15.1996 12.3199 15.1026 13.1749C15.0086 14.0149 14.2026 15.1279 13.7946 15.7979C13.2946 16.6199 12.7846 17.3479 11.9346 17.7309C11.4196 15.1579 11.9806 12.8709 12.4176 10.6889C12.6876 9.34387 13.2306 7.96787 12.7626 6.61387C11.4496 6.43087 10.3446 7.47387 9.04459 7.99387C6.60259 8.97387 3.88259 9.86687 3.53759 12.6899C3.34259 14.2799 3.93759 15.2899 4.36359 16.4199C5.20317 18.6768 6.33768 20.8126 7.73759 22.7719C7.37259 23.4439 6.51459 23.6189 6.42759 24.5649C6.81759 25.1169 7.62559 25.1899 8.42459 25.1869C10.7346 25.1819 12.6286 24.0169 14.3446 23.0469C18.0806 20.9389 20.5906 17.6929 23.2266 14.6239C23.6886 14.0839 24.0696 13.4339 24.6726 13.1039C25.2636 15.8319 24.1126 17.2909 23.2946 19.5249C22.9786 20.3859 21.9826 23.0809 22.4686 24.3579C23.0006 25.7619 27.5326 25.8239 28.7336 24.9129C29.3386 24.4529 29.5796 23.4159 29.9046 22.7719C30.3196 21.9419 30.6786 21.2259 31.0056 20.4929C31.0236 23.5179 33.2646 24.4059 35.6856 25.0499C40.8346 26.4149 46.0256 23.9759 48.8356 22.2899C48.4836 24.5299 49.3516 24.7549 51.1076 25.1199C55.6476 26.0599 60.2186 24.9759 63.9116 24.0829C67.2976 23.2659 70.0196 22.6879 70.5216 19.3179C69.9796 18.8479 68.6256 18.9069 67.6986 19.0429C64.9686 19.4439 62.3246 20.8279 58.6806 20.5609C58.0156 20.5129 56.5796 20.2809 56.4756 19.8709C56.3156 19.2349 57.4536 18.7889 58.4066 18.6289C61.1366 18.1659 65.0866 18.6339 67.2856 17.7989C68.3406 17.3989 69.6156 16.2459 69.4866 14.9689C69.4036 14.1059 68.2806 13.6539 67.2156 13.5889C64.2026 13.3989 62.0496 15.1639 58.8886 14.5549C59.2836 14.0539 59.3546 13.2289 59.8506 12.8289C62.1626 12.7799 64.4096 13.2399 66.5976 13.1049C69.6396 12.9139 71.3546 11.6289 72.7936 9.92787C72.9476 9.74487 73.3336 9.54787 73.2066 9.23787C67.9226 8.43187 60.7206 6.29587 54.2056 7.09787ZM43.7406 12.4119C43.4016 13.9619 42.6926 15.7339 42.2956 17.4519C44.4836 17.4839 46.7916 17.0359 49.0416 16.8999C49.3456 16.4929 49.4956 15.9299 49.6616 15.3809C50.1126 16.0209 50.4306 17.2209 50.0056 18.1429C46.5886 18.0949 44.1326 20.9019 40.7816 20.9039C39.2806 20.9059 38.0046 20.0409 38.7156 18.3489C39.7186 15.9649 42.2076 14.2989 43.7406 12.4119ZM51.7266 9.85687C52.3706 10.5929 53.7796 10.5619 54.6176 11.1019C53.4866 11.3929 52.0616 11.3919 51.0376 11.7899C51.2786 11.1569 51.4956 10.4999 51.7276 9.85787L51.7266 9.85687Z" fill="white"/>
</svg>
